<?xml version="1.0" encoding="UTF-8" standalone="no"?>
<!DOCTYPE svg PUBLIC "-//W3C//DTD SVG 1.1//EN"
 "http://www.w3.org/Graphics/SVG/1.1/DTD/svg11.dtd">
<!-- Generated by graphviz version 2.43.0 (0)
 -->
<!-- Title: G Pages: 1 -->
<svg width="847pt" height="718pt"
 viewBox="0.00 0.00 847.00 718.00" xmlns="http://www.w3.org/2000/svg" xmlns:xlink="http://www.w3.org/1999/xlink">
<g id="graph0" class="graph" transform="scale(1 1) rotate(0) translate(4 714)">
<title>G</title>
<polygon fill="white" stroke="transparent" points="-4,4 -4,-714 843,-714 843,4 -4,4"/>
<g id="clust1" class="cluster">
<title>cluster_root</title>
<g id="a_clust1"><a xlink:title="eventq_index=0&#10;full_system=false&#10;sim_quantum=0&#10;time_sync_enable=false&#10;time_sync_period=100000000000&#10;time_sync_spin_threshold=100000000">
<path fill="#bab6ae" stroke="#000000" d="M20,-8C20,-8 819,-8 819,-8 825,-8 831,-14 831,-20 831,-20 831,-690 831,-690 831,-696 825,-702 819,-702 819,-702 20,-702 20,-702 14,-702 8,-696 8,-690 8,-690 8,-20 8,-20 8,-14 14,-8 20,-8"/>
<text text-anchor="middle" x="419.5" y="-686.8" font-family="Arial" font-size="14.00" fill="#000000">root </text>
<text text-anchor="middle" x="419.5" y="-671.8" font-family="Arial" font-size="14.00" fill="#000000">: Root</text>
</a>
</g>
</g>
<g id="clust2" class="cluster">
<title>cluster_system</title>
<g id="a_clust2"><a xlink:title="auto_unlink_shared_backstore=false&#10;cache_line_size=64&#10;eventq_index=0&#10;exit_on_work_items=false&#10;init_param=0&#10;m5ops_base=0&#10;mem_mode=timing&#10;mem_ranges=0:536870912&#10;memories=system.mem_ctrl.dram&#10;mmap_using_noreserve=false&#10;multi_thread=false&#10;&#10;um_work_ids=16&#10;&#13;eadfile=&#10;&#13;edirect_paths=&#10;shadow_rom_ranges=&#10;shared_backstore=&#10;symbolfile=&#10;thermal_components=&#10;thermal_model=Null&#10;work_begin_ckpt_count=0&#10;work_begin_cpu_id_exit=&#45;1&#10;work_begin_exit_count=0&#10;work_cpus_ckpt_count=0&#10;work_end_ckpt_count=0&#10;work_end_exit_count=0&#10;work_item_id=&#45;1&#10;workload=system.workload">
<path fill="#e4e7eb" stroke="#000000" d="M28,-16C28,-16 811,-16 811,-16 817,-16 823,-22 823,-28 823,-28 823,-644 823,-644 823,-650 817,-656 811,-656 811,-656 28,-656 28,-656 22,-656 16,-650 16,-644 16,-644 16,-28 16,-28 16,-22 22,-16 28,-16"/>
<text text-anchor="middle" x="419.5" y="-640.8" font-family="Arial" font-size="14.00" fill="#000000">system </text>
<text text-anchor="middle" x="419.5" y="-625.8" font-family="Arial" font-size="14.00" fill="#000000">: System</text>
</a>
</g>
</g>
<g id="clust6" class="cluster">
<title>cluster_system_cpu</title>
<g id="a_clust6"><a xlink:title="branchPred=Null&#10;checker=Null&#10;clk_domain=system.clk_domain&#10;cpu_id=&#45;1&#10;decoder=system.cpu.decoder&#10;do_checkpoint_insts=true&#10;do_statistics_insts=true&#10;eventq_index=0&#10;function_trace=false&#10;function_trace_start=0&#10;interrupts=system.cpu.interrupts&#10;isa=system.cpu.isa&#10;max_insts_all_threads=0&#10;max_insts_any_thread=0&#10;mmu=system.cpu.mmu&#10;&#10;umThreads=1&#10;power_gating_on_idle=false&#10;power_model=&#10;power_state=system.cpu.power_state&#10;progress_interval=0&#10;pwr_gating_latency=300&#10;simpoint_start_insts=&#10;socket_id=0&#10;switched_out=false&#10;syscallRetryLatency=10000&#10;system=system&#10;tracer=system.cpu.tracer&#10;workload=system.cpu.workload">
<path fill="#bbc6d9" stroke="#000000" d="M304,-24C304,-24 803,-24 803,-24 809,-24 815,-30 815,-36 815,-36 815,-286 815,-286 815,-292 809,-298 803,-298 803,-298 304,-298 304,-298 298,-298 292,-292 292,-286 292,-286 292,-36 292,-36 292,-30 298,-24 304,-24"/>
<text text-anchor="middle" x="553.5" y="-282.8" font-family="Arial" font-size="14.00" fill="#000000">cpu </text>
<text text-anchor="middle" x="553.5" y="-267.8" font-family="Arial" font-size="14.00" fill="#000000">: X86TimingSimpleCPU</text>
</a>
</g>
</g>
<g id="clust16" class="cluster">
<title>cluster_system_cpu_icache</title>
<g id="a_clust16"><a xlink:title="addr_ranges=0:18446744073709551615&#10;assoc=2&#10;clk_domain=system.clk_domain&#10;clusivity=mostly_incl&#10;compressor=Null&#10;data_latency=2&#10;demand_mshr_reserve=1&#10;eventq_index=0&#10;is_read_only=false&#10;max_miss_count=0&#10;move_contractions=true&#10;mshrs=4&#10;power_model=&#10;power_state=system.cpu.icache.power_state&#10;prefetch_on_access=false&#10;prefetch_on_pf_hit=false&#10;prefetcher=Null&#10;&#13;eplace_expansions=true&#10;&#13;eplacement_policy=system.cpu.icache.replacement_policy&#10;&#13;esponse_latency=2&#10;sequential_access=false&#10;size=16384&#10;system=system&#10;tag_latency=2&#10;tags=system.cpu.icache.tags&#10;tgts_per_mshr=20&#10;warmup_percentage=0&#10;write_allocator=Null&#10;write_buffers=8&#10;writeback_clean=false">
<path fill="#bab6ae" stroke="#000000" d="M506,-32C506,-32 668,-32 668,-32 674,-32 680,-38 680,-44 680,-44 680,-110 680,-110 680,-116 674,-122 668,-122 668,-122 506,-122 506,-122 500,-122 494,-116 494,-110 494,-110 494,-44 494,-44 494,-38 500,-32 506,-32"/>
<text text-anchor="middle" x="587" y="-106.8" font-family="Arial" font-size="14.00" fill="#000000">icache </text>
<text text-anchor="middle" x="587" y="-91.8" font-family="Arial" font-size="14.00" fill="#000000">: L1ICache</text>
</a>
</g>
</g>
<g id="clust22" class="cluster">
<title>cluster_system_cpu_dcache</title>
<g id="a_clust22"><a xlink:title="addr_ranges=0:18446744073709551615&#10;assoc=2&#10;clk_domain=system.clk_domain&#10;clusivity=mostly_incl&#10;compressor=Null&#10;data_latency=2&#10;demand_mshr_reserve=1&#10;eventq_index=0&#10;is_read_only=false&#10;max_miss_count=0&#10;move_contractions=true&#10;mshrs=4&#10;power_model=&#10;power_state=system.cpu.dcache.power_state&#10;prefetch_on_access=false&#10;prefetch_on_pf_hit=false&#10;prefetcher=Null&#10;&#13;eplace_expansions=true&#10;&#13;eplacement_policy=system.cpu.dcache.replacement_policy&#10;&#13;esponse_latency=2&#10;sequential_access=false&#10;size=65536&#10;system=system&#10;tag_latency=2&#10;tags=system.cpu.dcache.tags&#10;tgts_per_mshr=20&#10;warmup_percentage=0&#10;write_allocator=Null&#10;write_buffers=8&#10;writeback_clean=false">
<path fill="#bab6ae" stroke="#000000" d="M312,-32C312,-32 474,-32 474,-32 480,-32 486,-38 486,-44 486,-44 486,-110 486,-110 486,-116 480,-122 474,-122 474,-122 312,-122 312,-122 306,-122 300,-116 300,-110 300,-110 300,-44 300,-44 300,-38 306,-32 312,-32"/>
<text text-anchor="middle" x="393" y="-106.8" font-family="Arial" font-size="14.00" fill="#000000">dcache </text>
<text text-anchor="middle" x="393" y="-91.8" font-family="Arial" font-size="14.00" fill="#000000">: L1DCache</text>
</a>
</g>
</g>
<g id="clust28" class="cluster">
<title>cluster_system_cpu_interrupts</title>
<g id="a_clust28"><a xlink:title="clk_domain=system.cpu.interrupts.clk_domain&#10;eventq_index=0&#10;int_latency=1000&#10;pio_latency=100000&#10;system=system">
<path fill="#bab6ae" stroke="#000000" d="M518,-162C518,-162 795,-162 795,-162 801,-162 807,-168 807,-174 807,-174 807,-240 807,-240 807,-246 801,-252 795,-252 795,-252 518,-252 518,-252 512,-252 506,-246 506,-240 506,-240 506,-174 506,-174 506,-168 512,-162 518,-162"/>
<text text-anchor="middle" x="656.5" y="-236.8" font-family="Arial" font-size="14.00" fill="#000000">interrupts </text>
<text text-anchor="middle" x="656.5" y="-221.8" font-family="Arial" font-size="14.00" fill="#000000">: X86LocalApic</text>
</a>
</g>
</g>
<g id="clust33" class="cluster">
<title>cluster_system_llcbus</title>
<g id="a_clust33"><a xlink:title="clk_domain=system.clk_domain&#10;eventq_index=0&#10;forward_latency=0&#10;frontend_latency=1&#10;header_latency=1&#10;max_outstanding_snoops=512&#10;max_routing_table_size=512&#10;point_of_coherency=false&#10;point_of_unification=true&#10;power_model=&#10;power_state=system.llcbus.power_state&#10;&#13;esponse_latency=1&#10;snoop_filter=system.llcbus.snoop_filter&#10;snoop_response_latency=1&#10;system=system&#10;use_default_range=false&#10;width=32">
<path fill="#6f798c" stroke="#000000" d="M36,-162C36,-162 272,-162 272,-162 278,-162 284,-168 284,-174 284,-174 284,-240 284,-240 284,-246 278,-252 272,-252 272,-252 36,-252 36,-252 30,-252 24,-246 24,-240 24,-240 24,-174 24,-174 24,-168 30,-162 36,-162"/>
<text text-anchor="middle" x="154" y="-236.8" font-family="Arial" font-size="14.00" fill="#000000">llcbus </text>
<text text-anchor="middle" x="154" y="-221.8" font-family="Arial" font-size="14.00" fill="#000000">: L2XBar</text>
</a>
</g>
</g>
<g id="clust36" class="cluster">
<title>cluster_system_llccache</title>
<g id="a_clust36"><a xlink:title="addr_ranges=0:18446744073709551615&#10;assoc=8&#10;clk_domain=system.clk_domain&#10;clusivity=mostly_incl&#10;compressor=Null&#10;data_latency=20&#10;demand_mshr_reserve=1&#10;eventq_index=0&#10;is_read_only=false&#10;max_miss_count=0&#10;move_contractions=true&#10;mshrs=20&#10;power_model=&#10;power_state=system.llccache.power_state&#10;prefetch_on_access=false&#10;prefetch_on_pf_hit=false&#10;prefetcher=Null&#10;&#13;eplace_expansions=true&#10;&#13;eplacement_policy=system.llccache.replacement_policy&#10;&#13;esponse_latency=20&#10;sequential_access=false&#10;size=262144&#10;system=system&#10;tag_latency=20&#10;tags=system.llccache.tags&#10;tgts_per_mshr=12&#10;warmup_percentage=0&#10;write_allocator=Null&#10;write_buffers=8&#10;writeback_clean=false">
<path fill="#bab6ae" stroke="#000000" d="M207,-306C207,-306 369,-306 369,-306 375,-306 381,-312 381,-318 381,-318 381,-384 381,-384 381,-390 375,-396 369,-396 369,-396 207,-396 207,-396 201,-396 195,-390 195,-384 195,-384 195,-318 195,-318 195,-312 201,-306 207,-306"/>
<text text-anchor="middle" x="288" y="-380.8" font-family="Arial" font-size="14.00" fill="#000000">llccache </text>
<text text-anchor="middle" x="288" y="-365.8" font-family="Arial" font-size="14.00" fill="#000000">: LLCCache</text>
</a>
</g>
</g>
<g id="clust42" class="cluster">
<title>cluster_system_membus</title>
<g id="a_clust42"><a xlink:title="clk_domain=system.clk_domain&#10;eventq_index=0&#10;forward_latency=4&#10;frontend_latency=3&#10;header_latency=1&#10;max_outstanding_snoops=512&#10;max_routing_table_size=512&#10;point_of_coherency=true&#10;point_of_unification=true&#10;power_model=&#10;power_state=system.membus.power_state&#10;&#13;esponse_latency=2&#10;snoop_filter=system.membus.snoop_filter&#10;snoop_response_latency=4&#10;system=system&#10;use_default_range=false&#10;width=16">
<path fill="#6f798c" stroke="#000000" d="M512,-436C512,-436 748,-436 748,-436 754,-436 760,-442 760,-448 760,-448 760,-514 760,-514 760,-520 754,-526 748,-526 748,-526 512,-526 512,-526 506,-526 500,-520 500,-514 500,-514 500,-448 500,-448 500,-442 506,-436 512,-436"/>
<text text-anchor="middle" x="630" y="-510.8" font-family="Arial" font-size="14.00" fill="#000000">membus </text>
<text text-anchor="middle" x="630" y="-495.8" font-family="Arial" font-size="14.00" fill="#000000">: SystemXBar</text>
</a>
</g>
</g>
<g id="clust45" class="cluster">
<title>cluster_system_mem_ctrl</title>
<g id="a_clust45"><a xlink:title="clk_domain=system.clk_domain&#10;command_window=10000&#10;disable_sanity_check=false&#10;dram=system.mem_ctrl.dram&#10;eventq_index=0&#10;mem_sched_policy=frfcfs&#10;min_reads_per_switch=16&#10;min_writes_per_switch=16&#10;power_model=&#10;power_state=system.mem_ctrl.power_state&#10;qos_policy=Null&#10;qos_priorities=1&#10;qos_priority_escalation=false&#10;qos_q_policy=fifo&#10;qos_requestors= &#160;&#160;&#160;&#160;&#160;&#160;&#160;&#160;&#160;&#160;&#160;&#160;&#160;&#160;&#10;qos_syncro_scheduler=false&#10;qos_turnaround_policy=Null&#10;static_backend_latency=10000&#10;static_frontend_latency=10000&#10;system=system&#10;write_high_thresh_perc=85&#10;write_low_thresh_perc=50">
<path fill="#bab6ae" stroke="#000000" d="M719,-306C719,-306 772,-306 772,-306 778,-306 784,-312 784,-318 784,-318 784,-384 784,-384 784,-390 778,-396 772,-396 772,-396 719,-396 719,-396 713,-396 707,-390 707,-384 707,-384 707,-318 707,-318 707,-312 713,-306 719,-306"/>
<text text-anchor="middle" x="745.5" y="-380.8" font-family="Arial" font-size="14.00" fill="#000000">mem_ctrl </text>
<text text-anchor="middle" x="745.5" y="-365.8" font-family="Arial" font-size="14.00" fill="#000000">: MemCtrl</text>
</a>
</g>
</g>
<!-- system_system_port -->
<g id="node1" class="node">
<title>system_system_port</title>
<path fill="#b6b8bc" stroke="#000000" d="M595.5,-610C595.5,-610 528.5,-610 528.5,-610 522.5,-610 516.5,-604 516.5,-598 516.5,-598 516.5,-586 516.5,-586 516.5,-580 522.5,-574 528.5,-574 528.5,-574 595.5,-574 595.5,-574 601.5,-574 607.5,-580 607.5,-586 607.5,-586 607.5,-598 607.5,-598 607.5,-604 601.5,-610 595.5,-610"/>
<text text-anchor="middle" x="562" y="-588.3" font-family="Arial" font-size="14.00" fill="#000000">system_port</text>
</g>
<!-- system_membus_cpu_side_ports -->
<g id="node15" class="node">
<title>system_membus_cpu_side_ports</title>
<path fill="#586070" stroke="#000000" d="M604,-480C604,-480 520,-480 520,-480 514,-480 508,-474 508,-468 508,-468 508,-456 508,-456 508,-450 514,-444 520,-444 520,-444 604,-444 604,-444 610,-444 616,-450 616,-456 616,-456 616,-468 616,-468 616,-474 610,-480 604,-480"/>
<text text-anchor="middle" x="562" y="-458.3" font-family="Arial" font-size="14.00" fill="#000000">cpu_side_ports</text>
</g>
<!-- system_system_port&#45;&gt;system_membus_cpu_side_ports -->
<g id="edge1" class="edge">
<title>system_system_port&#45;&gt;system_membus_cpu_side_ports</title>
<path fill="none" stroke="black" d="M562,-573.74C562,-552.36 562,-515.69 562,-490.44"/>
<polygon fill="black" stroke="black" points="565.5,-490.4 562,-480.4 558.5,-490.4 565.5,-490.4"/>
</g>
<!-- system_cpu_icache_port -->
<g id="node2" class="node">
<title>system_cpu_icache_port</title>
<path fill="#959ead" stroke="#000000" d="M484,-206C484,-206 422,-206 422,-206 416,-206 410,-200 410,-194 410,-194 410,-182 410,-182 410,-176 416,-170 422,-170 422,-170 484,-170 484,-170 490,-170 496,-176 496,-182 496,-182 496,-194 496,-194 496,-200 490,-206 484,-206"/>
<text text-anchor="middle" x="453" y="-184.3" font-family="Arial" font-size="14.00" fill="#000000">icache_port</text>
</g>
<!-- system_cpu_icache_cpu_side -->
<g id="node4" class="node">
<title>system_cpu_icache_cpu_side</title>
<path fill="#94918b" stroke="#000000" d="M659.5,-76C659.5,-76 612.5,-76 612.5,-76 606.5,-76 600.5,-70 600.5,-64 600.5,-64 600.5,-52 600.5,-52 600.5,-46 606.5,-40 612.5,-40 612.5,-40 659.5,-40 659.5,-40 665.5,-40 671.5,-46 671.5,-52 671.5,-52 671.5,-64 671.5,-64 671.5,-70 665.5,-76 659.5,-76"/>
<text text-anchor="middle" x="636" y="-54.3" font-family="Arial" font-size="14.00" fill="#000000">cpu_side</text>
</g>
<!-- system_cpu_icache_port&#45;&gt;system_cpu_icache_cpu_side -->
<g id="edge2" class="edge">
<title>system_cpu_icache_port&#45;&gt;system_cpu_icache_cpu_side</title>
<path fill="none" stroke="black" d="M485.84,-169.97C491.22,-167.26 496.75,-164.52 502,-162 541.1,-143.25 557.46,-149.49 591,-122 603.47,-111.79 614.13,-97.32 621.94,-84.83"/>
<polygon fill="black" stroke="black" points="624.99,-86.55 627.11,-76.17 618.98,-82.96 624.99,-86.55"/>
</g>
<!-- system_cpu_dcache_port -->
<g id="node3" class="node">
<title>system_cpu_dcache_port</title>
<path fill="#959ead" stroke="#000000" d="M379.5,-206C379.5,-206 312.5,-206 312.5,-206 306.5,-206 300.5,-200 300.5,-194 300.5,-194 300.5,-182 300.5,-182 300.5,-176 306.5,-170 312.5,-170 312.5,-170 379.5,-170 379.5,-170 385.5,-170 391.5,-176 391.5,-182 391.5,-182 391.5,-194 391.5,-194 391.5,-200 385.5,-206 379.5,-206"/>
<text text-anchor="middle" x="346" y="-184.3" font-family="Arial" font-size="14.00" fill="#000000">dcache_port</text>
</g>
<!-- system_cpu_dcache_cpu_side -->
<g id="node6" class="node">
<title>system_cpu_dcache_cpu_side</title>
<path fill="#94918b" stroke="#000000" d="M465.5,-76C465.5,-76 418.5,-76 418.5,-76 412.5,-76 406.5,-70 406.5,-64 406.5,-64 406.5,-52 406.5,-52 406.5,-46 412.5,-40 418.5,-40 418.5,-40 465.5,-40 465.5,-40 471.5,-40 477.5,-46 477.5,-52 477.5,-52 477.5,-64 477.5,-64 477.5,-70 471.5,-76 465.5,-76"/>
<text text-anchor="middle" x="442" y="-54.3" font-family="Arial" font-size="14.00" fill="#000000">cpu_side</text>
</g>
<!-- system_cpu_dcache_port&#45;&gt;system_cpu_dcache_cpu_side -->
<g id="edge3" class="edge">
<title>system_cpu_dcache_port&#45;&gt;system_cpu_dcache_cpu_side</title>
<path fill="none" stroke="black" d="M359.85,-169.78C370.23,-156.78 384.71,-138.42 397,-122 406.12,-109.83 415.97,-96.11 424.12,-84.58"/>
<polygon fill="black" stroke="black" points="427.08,-86.45 429.98,-76.26 421.36,-82.42 427.08,-86.45"/>
</g>
<!-- system_cpu_icache_mem_side -->
<g id="node5" class="node">
<title>system_cpu_icache_mem_side</title>
<path fill="#94918b" stroke="#000000" d="M570,-76C570,-76 514,-76 514,-76 508,-76 502,-70 502,-64 502,-64 502,-52 502,-52 502,-46 508,-40 514,-40 514,-40 570,-40 570,-40 576,-40 582,-46 582,-52 582,-52 582,-64 582,-64 582,-70 576,-76 570,-76"/>
<text text-anchor="middle" x="542" y="-54.3" font-family="Arial" font-size="14.00" fill="#000000">mem_side</text>
</g>
<!-- system_cpu_dcache_mem_side -->
<g id="node7" class="node">
<title>system_cpu_dcache_mem_side</title>
<path fill="#94918b" stroke="#000000" d="M376,-76C376,-76 320,-76 320,-76 314,-76 308,-70 308,-64 308,-64 308,-52 308,-52 308,-46 314,-40 320,-40 320,-40 376,-40 376,-40 382,-40 388,-46 388,-52 388,-52 388,-64 388,-64 388,-70 382,-76 376,-76"/>
<text text-anchor="middle" x="348" y="-54.3" font-family="Arial" font-size="14.00" fill="#000000">mem_side</text>
</g>
<!-- system_cpu_interrupts_int_requestor -->
<g id="node8" class="node">
<title>system_cpu_interrupts_int_requestor</title>
<path fill="#94918b" stroke="#000000" d="M597.5,-206C597.5,-206 526.5,-206 526.5,-206 520.5,-206 514.5,-200 514.5,-194 514.5,-194 514.5,-182 514.5,-182 514.5,-176 520.5,-170 526.5,-170 526.5,-170 597.5,-170 597.5,-170 603.5,-170 609.5,-176 609.5,-182 609.5,-182 609.5,-194 609.5,-194 609.5,-200 603.5,-206 597.5,-206"/>
<text text-anchor="middle" x="562" y="-184.3" font-family="Arial" font-size="14.00" fill="#000000">int_requestor</text>
</g>
<!-- system_cpu_interrupts_int_responder -->
<g id="node9" class="node">
<title>system_cpu_interrupts_int_responder</title>
<path fill="#94918b" stroke="#000000" d="M714.5,-206C714.5,-206 639.5,-206 639.5,-206 633.5,-206 627.5,-200 627.5,-194 627.5,-194 627.5,-182 627.5,-182 627.5,-176 633.5,-170 639.5,-170 639.5,-170 714.5,-170 714.5,-170 720.5,-170 726.5,-176 726.5,-182 726.5,-182 726.5,-194 726.5,-194 726.5,-200 720.5,-206 714.5,-206"/>
<text text-anchor="middle" x="677" y="-184.3" font-family="Arial" font-size="14.00" fill="#000000">int_responder</text>
</g>
<!-- system_cpu_interrupts_pio -->
<g id="node10" class="node">
<title>system_cpu_interrupts_pio</title>
<path fill="#94918b" stroke="#000000" d="M787,-206C787,-206 757,-206 757,-206 751,-206 745,-200 745,-194 745,-194 745,-182 745,-182 745,-176 751,-170 757,-170 757,-170 787,-170 787,-170 793,-170 799,-176 799,-182 799,-182 799,-194 799,-194 799,-200 793,-206 787,-206"/>
<text text-anchor="middle" x="772" y="-184.3" font-family="Arial" font-size="14.00" fill="#000000">pio</text>
</g>
<!-- system_llcbus_cpu_side_ports -->
<g id="node11" class="node">
<title>system_llcbus_cpu_side_ports</title>
<path fill="#586070" stroke="#000000" d="M264,-206C264,-206 180,-206 180,-206 174,-206 168,-200 168,-194 168,-194 168,-182 168,-182 168,-176 174,-170 180,-170 180,-170 264,-170 264,-170 270,-170 276,-176 276,-182 276,-182 276,-194 276,-194 276,-200 270,-206 264,-206"/>
<text text-anchor="middle" x="222" y="-184.3" font-family="Arial" font-size="14.00" fill="#000000">cpu_side_ports</text>
</g>
<!-- system_llcbus_cpu_side_ports&#45;&gt;system_cpu_icache_mem_side -->
<g id="edge4" class="edge">
<title>system_llcbus_cpu_side_ports&#45;&gt;system_cpu_icache_mem_side</title>
<path fill="none" stroke="black" d="M273.69,-166.49C278.49,-164.87 283.31,-163.34 288,-162 375.99,-136.81 411.41,-168.91 490,-122 508.51,-110.95 523.37,-90.81 532.39,-76.27"/>
<polygon fill="black" stroke="black" points="272.17,-163.32 263.9,-169.94 274.49,-169.92 272.17,-163.32"/>
</g>
<!-- system_llcbus_cpu_side_ports&#45;&gt;system_cpu_dcache_mem_side -->
<g id="edge5" class="edge">
<title>system_llcbus_cpu_side_ports&#45;&gt;system_cpu_dcache_mem_side</title>
<path fill="none" stroke="black" d="M246.24,-162.37C271.06,-137.16 309.01,-98.6 330.87,-76.4"/>
<polygon fill="black" stroke="black" points="243.51,-160.16 238.99,-169.74 248.5,-165.07 243.51,-160.16"/>
</g>
<!-- system_llcbus_mem_side_ports -->
<g id="node12" class="node">
<title>system_llcbus_mem_side_ports</title>
<path fill="#586070" stroke="#000000" d="M138,-206C138,-206 44,-206 44,-206 38,-206 32,-200 32,-194 32,-194 32,-182 32,-182 32,-176 38,-170 44,-170 44,-170 138,-170 138,-170 144,-170 150,-176 150,-182 150,-182 150,-194 150,-194 150,-200 144,-206 138,-206"/>
<text text-anchor="middle" x="91" y="-184.3" font-family="Arial" font-size="14.00" fill="#000000">mem_side_ports</text>
</g>
<!-- system_llccache_cpu_side -->
<g id="node13" class="node">
<title>system_llccache_cpu_side</title>
<path fill="#94918b" stroke="#000000" d="M360.5,-350C360.5,-350 313.5,-350 313.5,-350 307.5,-350 301.5,-344 301.5,-338 301.5,-338 301.5,-326 301.5,-326 301.5,-320 307.5,-314 313.5,-314 313.5,-314 360.5,-314 360.5,-314 366.5,-314 372.5,-320 372.5,-326 372.5,-326 372.5,-338 372.5,-338 372.5,-344 366.5,-350 360.5,-350"/>
<text text-anchor="middle" x="337" y="-328.3" font-family="Arial" font-size="14.00" fill="#000000">cpu_side</text>
</g>
<!-- system_llccache_cpu_side&#45;&gt;system_llcbus_mem_side_ports -->
<g id="edge6" class="edge">
<title>system_llccache_cpu_side&#45;&gt;system_llcbus_mem_side_ports</title>
<path fill="none" stroke="black" d="M301.52,-309.45C298.37,-308.11 295.17,-306.93 292,-306 263.57,-297.72 184.45,-313.14 159,-298 124.3,-277.36 104.68,-231.42 96.16,-206.27"/>
<polygon fill="black" stroke="black" points="300.2,-312.7 310.73,-313.86 303.23,-306.39 300.2,-312.7"/>
</g>
<!-- system_llccache_mem_side -->
<g id="node14" class="node">
<title>system_llccache_mem_side</title>
<path fill="#94918b" stroke="#000000" d="M271,-350C271,-350 215,-350 215,-350 209,-350 203,-344 203,-338 203,-338 203,-326 203,-326 203,-320 209,-314 215,-314 215,-314 271,-314 271,-314 277,-314 283,-320 283,-326 283,-326 283,-338 283,-338 283,-344 277,-350 271,-350"/>
<text text-anchor="middle" x="243" y="-328.3" font-family="Arial" font-size="14.00" fill="#000000">mem_side</text>
</g>
<!-- system_membus_cpu_side_ports&#45;&gt;system_cpu_interrupts_int_requestor -->
<g id="edge8" class="edge">
<title>system_membus_cpu_side_ports&#45;&gt;system_cpu_interrupts_int_requestor</title>
<path fill="none" stroke="black" d="M562,-433.8C562,-377.96 562,-251.8 562,-206.01"/>
<polygon fill="black" stroke="black" points="558.5,-433.99 562,-443.99 565.5,-433.99 558.5,-433.99"/>
</g>
<!-- system_membus_cpu_side_ports&#45;&gt;system_llccache_mem_side -->
<g id="edge7" class="edge">
<title>system_membus_cpu_side_ports&#45;&gt;system_llccache_mem_side</title>
<path fill="none" stroke="black" d="M497.88,-457.27C440.29,-451.31 355.45,-435.9 293,-396 275.11,-384.57 260.84,-364.51 252.2,-350.09"/>
<polygon fill="black" stroke="black" points="497.66,-460.76 507.95,-458.24 498.33,-453.79 497.66,-460.76"/>
</g>
<!-- system_membus_mem_side_ports -->
<g id="node16" class="node">
<title>system_membus_mem_side_ports</title>
<path fill="#586070" stroke="#000000" d="M740,-480C740,-480 646,-480 646,-480 640,-480 634,-474 634,-468 634,-468 634,-456 634,-456 634,-450 640,-444 646,-444 646,-444 740,-444 740,-444 746,-444 752,-450 752,-456 752,-456 752,-468 752,-468 752,-474 746,-480 740,-480"/>
<text text-anchor="middle" x="693" y="-458.3" font-family="Arial" font-size="14.00" fill="#000000">mem_side_ports</text>
</g>
<!-- system_membus_mem_side_ports&#45;&gt;system_cpu_interrupts_int_responder -->
<g id="edge10" class="edge">
<title>system_membus_mem_side_ports&#45;&gt;system_cpu_interrupts_int_responder</title>
<path fill="none" stroke="black" d="M692,-443.99C689.31,-398.19 681.88,-272.03 678.6,-216.19"/>
<polygon fill="black" stroke="black" points="682.08,-215.79 678,-206.01 675.09,-216.2 682.08,-215.79"/>
</g>
<!-- system_membus_mem_side_ports&#45;&gt;system_cpu_interrupts_pio -->
<g id="edge9" class="edge">
<title>system_membus_mem_side_ports&#45;&gt;system_cpu_interrupts_pio</title>
<path fill="none" stroke="black" d="M692.98,-443.76C693.1,-405.57 694.31,-316.35 703,-306 712.71,-294.44 724.9,-308.23 736,-298 758.85,-276.94 767.22,-241.09 770.27,-216.29"/>
<polygon fill="black" stroke="black" points="773.78,-216.39 771.31,-206.09 766.81,-215.68 773.78,-216.39"/>
</g>
<!-- system_mem_ctrl_port -->
<g id="node17" class="node">
<title>system_mem_ctrl_port</title>
<path fill="#94918b" stroke="#000000" d="M758,-350C758,-350 728,-350 728,-350 722,-350 716,-344 716,-338 716,-338 716,-326 716,-326 716,-320 722,-314 728,-314 728,-314 758,-314 758,-314 764,-314 770,-320 770,-326 770,-326 770,-338 770,-338 770,-344 764,-350 758,-350"/>
<text text-anchor="middle" x="743" y="-328.3" font-family="Arial" font-size="14.00" fill="#000000">port</text>
</g>
<!-- system_membus_mem_side_ports&#45;&gt;system_mem_ctrl_port -->
<g id="edge11" class="edge">
<title>system_membus_mem_side_ports&#45;&gt;system_mem_ctrl_port</title>
<path fill="none" stroke="black" d="M699.74,-443.74C708.17,-422.17 722.67,-385.03 732.54,-359.77"/>
<polygon fill="black" stroke="black" points="735.83,-360.99 736.2,-350.4 729.31,-358.44 735.83,-360.99"/>
</g>
</g>
</svg>
